<svg width="0" height="0" class="hidden">
  <symbol xmlns="http://www.w3.org/2000/svg" viewBox="0 0 48 48" id="icons8-mysql">
    <path fill="#00796b" d="M0.002,35.041h1.92v-7.085l2.667,6.057c0.329,0.755,0.779,1.022,1.662,1.022 s1.315-0.267,1.644-1.022l2.667-5.902v6.93h1.92v-7.258c0-0.697-0.277-1.035-0.849-1.209c-1.367-0.43-2.285-0.059-2.7,0.872 l-2.735,6.16l-2.649-6.16c-0.398-0.93-1.332-1.302-2.7-0.872C0.277,26.748,0,27.085,0,27.782v7.258H0.002z"></path>
    <path fill="#00796b" d="M13.441,29.281h1.92v4.055c-0.015,0.2,0.064,0.731,0.99,0.745c0.472,0.008,2.821,0,2.85,0v-4.8h1.92 c0.008,0,0,5.968,0,5.993c0.01,1.472-1.828,1.662-2.673,1.687h-5.006v-0.96c0.01,0,4.787,0.001,4.801,0 c1.088-0.115,0.959-0.714,0.959-0.896v-0.064H16.19c-1.67-0.015-2.735-0.751-2.747-1.59C13.441,33.373,13.479,29.317,13.441,29.281 z"></path>
    <path fill="#f57f17" d="M22.081,35.041h4.807c0.63,0,1.242-0.132,1.728-0.36c0.81-0.372,1.144-0.875,1.144-1.536v-1.368 c0-1.476-1.83-1.536-2.88-1.536h-1.92c-0.755,0-0.87-0.456-0.96-0.96v-0.96c0.09-0.384,0.258-0.9,0.923-0.96 c0.773,0,4.836,0,4.836,0v-0.96h-4.566c-0.755,0-3.114,0.09-3.114,1.92v1.187c0,0.84,0.738,1.524,2.34,1.692 c0.18,0.012,0.36,0.024,0.539,0.024c0,0,1.866-0.036,1.92-0.024c1.08,0,0.96,0.84,0.96,0.96v0.96c0,0.132-0.03,0.96-0.971,0.96 c-0.072,0-4.789,0-4.789,0V35.041z"></path>
    <path fill="#f57f17" d="M40.32,33.08c0,1.159,0.655,1.809,2.392,1.939c0.162,0.011,0.325,0.021,0.488,0.021H48v-0.96h-4.435 c-0.991,0-1.325-0.416-1.325-1.011v-6.669h-1.92V33.08z"></path>
    <path fill="#f57f17" d="M30.704,33.121v-4.8c0-1.02,0.5-1.724,1.916-1.92h0.672h3.447h0.525 c1.416,0.196,2.08,0.899,2.08,1.92v4.782c0,0.827-0.215,1.271-0.916,1.559L39.916,36h-2.16l-1.07-0.96h-1.257l-2.136,0.012 c-0.309,0-0.635-0.043-0.993-0.141C31.226,34.618,30.704,34.054,30.704,33.121z M32.624,33.121c0.098,0.467,0.473,0.96,1.14,0.96 h1.864l-1.068-0.96h2.175l0.519,0.482c0,0,0.186-0.152,0.186-0.482c0-0.33-0.016-4.8-0.016-4.8c-0.098-0.434-0.538-0.96-1.188-0.96 h-2.471c-0.749,0-1.14,0.548-1.14,1.058L32.624,33.121L32.624,33.121z"></path>
    <path fill="#00796b" d="M46.199,25.389c-1.031-0.028-1.818,0.068-2.491,0.351c-0.191,0.081-0.496,0.083-0.528,0.323 c0.105,0.11,0.121,0.275,0.205,0.41c0.16,0.26,0.432,0.609,0.674,0.791c0.265,0.2,0.538,0.414,0.821,0.587 c0.504,0.307,1.067,0.483,1.553,0.791c0.286,0.181,0.57,0.411,0.85,0.615c0.138,0.102,0.23,0.259,0.41,0.323 c0-0.01,0-0.019,0-0.029c-0.094-0.12-0.119-0.285-0.205-0.411c-0.127-0.127-0.254-0.254-0.381-0.381 c-0.372-0.494-0.846-0.929-1.348-1.289c-0.401-0.288-1.298-0.677-1.466-1.143c-0.01-0.01-0.019-0.019-0.03-0.03 c0.284-0.032,0.617-0.135,0.879-0.205c0.441-0.118,0.834-0.087,1.289-0.205c0.205-0.059,0.41-0.117,0.615-0.176 c0-0.039,0-0.078,0-0.117c-0.23-0.236-0.395-0.548-0.645-0.762c-0.657-0.559-1.373-1.117-2.11-1.583 c-0.409-0.258-0.915-0.426-1.348-0.645c-0.146-0.074-0.402-0.112-0.498-0.234c-0.228-0.29-0.351-0.659-0.527-0.996 c-0.368-0.708-0.73-1.482-1.055-2.227c-0.223-0.508-0.368-1.01-0.645-1.466c-1.331-2.188-2.764-3.509-4.982-4.807 c-0.472-0.276-1.041-0.385-1.642-0.528c-0.323-0.019-0.645-0.039-0.968-0.059c-0.197-0.083-0.401-0.323-0.587-0.44 c-0.735-0.465-2.621-1.475-3.165-0.147c-0.344,0.838,0.514,1.656,0.821,2.081c0.215,0.298,0.491,0.632,0.645,0.968 c0.101,0.22,0.119,0.441,0.205,0.674c0.213,0.574,0.55,1.228,0.826,1.759c0.139,0.269,0.293,0.551,0.469,0.791 c0.108,0.147,0.293,0.212,0.323,0.44c-0.181,0.253-0.191,0.646-0.293,0.968c-0.458,1.445-0.285,3.24,0.381,4.308 c0.204,0.328,0.686,1.032,1.348,0.762c0.579-0.236,0.45-0.967,0.615-1.612c0.037-0.146,0.014-0.253,0.088-0.351 c0,0.01,0,0.019,0,0.03c0.176,0.351,0.351,0.704,0.528,1.055c0.391,0.629,1.084,1.286,1.67,1.73 c0.304,0.23,0.544,0.628,0.938,0.762c0-0.01,0-0.019,0-0.03c-0.01,0-0.019,0-0.03,0c-0.076-0.119-0.196-0.168-0.293-0.264 c-0.229-0.225-0.485-0.504-0.674-0.762c-0.534-0.725-1.006-1.519-1.436-2.345c-0.205-0.395-0.384-0.829-0.557-1.231 c-0.067-0.155-0.066-0.389-0.205-0.469c-0.19,0.294-0.468,0.532-0.615,0.879c-0.234,0.555-0.265,1.233-0.351,1.934 c-0.052,0.018-0.029,0.006-0.059,0.029c-0.408-0.099-0.552-0.518-0.704-0.879c-0.384-0.912-0.455-2.38-0.117-3.429 c0.087-0.272,0.482-1.127,0.323-1.378c-0.076-0.251-0.328-0.396-0.468-0.587c-0.175-0.236-0.348-0.548-0.469-0.821 c-0.314-0.711-0.612-1.538-0.943-2.257c-0.158-0.344-0.425-0.691-0.645-0.996c-0.243-0.338-0.516-0.587-0.704-0.996 c-0.067-0.145-0.158-0.378-0.059-0.528c0.032-0.101,0.076-0.143,0.176-0.176c0.17-0.132,0.643,0.043,0.821,0.117 c0.47,0.195,0.862,0.381,1.26,0.645c0.191,0.127,0.384,0.372,0.615,0.44c0.088,0,0.176,0,0.264,0 c0.413,0.095,0.875,0.03,1.26,0.147c0.682,0.207,1.292,0.529,1.846,0.879c1.69,1.067,3.071,2.585,4.016,4.397 c0.152,0.292,0.218,0.57,0.351,0.879c0.27,0.624,0.611,1.266,0.879,1.876c0.268,0.609,0.53,1.223,0.909,1.73 c0.2,0.266,0.97,0.409,1.319,0.557c0.245,0.104,0.647,0.211,0.879,0.351c0.444,0.268,0.874,0.587,1.289,0.879 C45.528,24.803,46.167,25.124,46.199,25.389z"></path>
    <path fill="#00796b" d="M33.098,14.223c-0.215-0.004-0.367,0.023-0.528,0.059c0,0.01,0,0.019,0,0.03c0.01,0,0.019,0,0.03,0 c0.103,0.21,0.283,0.347,0.41,0.528c0.098,0.205,0.195,0.41,0.293,0.615c0.01-0.01,0.019-0.019,0.029-0.029 c0.181-0.128,0.265-0.332,0.264-0.645c-0.073-0.077-0.084-0.173-0.147-0.264C33.365,14.394,33.203,14.325,33.098,14.223z"></path>
  </symbol>
  <symbol xmlns="http://www.w3.org/2000/svg" viewBox="0 0 48 48" id="icons8-anaconda">
    <linearGradient id="I1Ls14S_9qH6lfzYnZ33la" x1="20.837" x2="26.769" y1="4.234" y2="41.178" gradientUnits="userSpaceOnUse">
      <stop offset="0" stop-color="#50d133"></stop>
      <stop offset="1" stop-color="#3da126"></stop>
    </linearGradient>
    <path fill="url(#I1Ls14S_9qH6lfzYnZ33la)" d="M11.575,8.758c1.128,0.177,2.553,0.46,4.074,0.892c-0.343,0.977-0.636,2.004-0.856,3.057 c-1.093-0.01-2.173,0.066-3.212,0.201C11.482,11.344,11.508,9.907,11.575,8.758z M10.082,13.144 c-0.086-1.246-0.092-2.411-0.06-3.435C9.969,9.761,9.91,9.805,9.857,9.858c-1.25,1.25-2.277,2.636-3.127,4.097 C7.717,13.663,8.842,13.373,10.082,13.144z M12.205,17.121c0.579-0.994,1.279-1.936,2.129-2.787 c0.045-0.045,0.094-0.082,0.139-0.126c-0.935,0.008-1.862,0.082-2.759,0.202C11.818,15.306,11.988,16.217,12.205,17.121z M10.929,18.242c-0.335-1.195-0.563-2.408-0.706-3.588c-1.763,0.336-3.316,0.797-4.461,1.189c-0.02,0.045-0.042,0.088-0.062,0.133 c0.502,1.124,1.236,2.597,2.204,4.132C8.84,19.432,9.852,18.793,10.929,18.242z M6.776,20.965c-0.716-1.122-1.297-2.2-1.77-3.162 c-0.593,1.827-0.915,3.719-0.969,5.621C4.795,22.666,5.717,21.813,6.776,20.965z M4.202,26.624 c0.252,1.922,0.784,3.808,1.593,5.604c0.371-1.03,0.848-2.205,1.45-3.425C6.083,28.069,5.056,27.31,4.202,26.624z M4.32,25.153 c0.907,0.765,2.102,1.686,3.489,2.571C8.361,26.718,9,25.715,9.732,24.763c-0.801-0.832-1.522-1.721-2.164-2.622 C6.243,23.212,5.127,24.298,4.32,25.153z M8.688,21.282c0.506,0.717,1.073,1.417,1.68,2.087c0.055-1.206,0.265-2.404,0.637-3.564 C10.193,20.258,9.413,20.754,8.688,21.282z M16.231,8.138c0.477-1.151,0.988-2.194,1.472-3.096 c-1.67,0.552-3.285,1.313-4.789,2.315C13.91,7.542,15.035,7.791,16.231,8.138z M17.774,8.625c0.919,0.321,1.849,0.705,2.762,1.151 c0.862-0.998,1.601-1.839,2.097-2.4c-0.72-0.597-1.862-1.515-3.063-2.385C19.007,5.977,18.364,7.222,17.774,8.625z M11.168,35.604 c-1.438-0.131-2.76-0.357-3.867-0.593c0.731,1.108,1.583,2.158,2.557,3.132c0.513,0.513,1.049,0.987,1.601,1.432 C11.307,38.432,11.184,37.07,11.168,35.604z M38.142,9.857C33.68,5.396,27.617,3.499,21.785,4.144 c1.581,1.206,2.84,2.294,2.932,2.375l0.767,0.667l-0.679,0.756c-0.016,0.018-0.896,1.001-2.17,2.466 c0.454-0.045,0.909-0.07,1.365-0.07c3.5,0,7.001,1.333,9.666,3.997c5.33,5.33,5.33,14.002,0,19.332 c-4.618,4.617-11.744,5.226-17.032,1.842c-1.014,0.147-2.034,0.214-3.031,0.214c-0.447,0-0.886-0.016-1.321-0.038 c0.027,1.87,0.233,3.567,0.436,4.817c3.389,2.319,7.333,3.492,11.283,3.492c5.122,0,10.243-1.95,14.142-5.848l0,0 C45.94,30.344,45.94,17.656,38.142,9.857z M15.296,34.535c-0.33-0.273-0.652-0.56-0.961-0.868c-0.671-0.671-1.257-1.396-1.759-2.16 c-0.169,1.027-0.26,2.057-0.286,3.06C13.268,34.62,14.282,34.611,15.296,34.535z M17.185,10.131 c-0.282,0.793-0.523,1.621-0.721,2.464c0.91-0.602,1.88-1.069,2.88-1.43c0.035-0.041,0.074-0.088,0.109-0.129 C18.703,10.69,17.941,10.391,17.185,10.131z M10.47,25.799c-0.606,0.824-1.151,1.685-1.624,2.554 c0.865,0.5,1.789,0.957,2.748,1.349C11.022,28.453,10.646,27.138,10.47,25.799z M11.541,30.983 c-1.146-0.437-2.237-0.972-3.252-1.553c-0.775,1.586-1.341,3.103-1.722,4.276c1.202,0.291,2.823,0.608,4.613,0.779 C11.214,33.341,11.324,32.161,11.541,30.983z"></path>
  </symbol>
  <symbol xmlns="http://www.w3.org/2000/svg" viewBox="0 0 48 48" id="icons8-photoshop">
    <path fill="#03A9F4" d="M6,10c0-2.209,1.791-4,4-4h28c2.209,0,4,1.791,4,4v28c0,2.209-1.791,4-4,4H10c-2.209,0-4-1.791-4-4V10z"></path>
    <path fill="#020F16" d="M20.016,19.174h-2.002v4.434h1.973c0.547,0,0.97-0.179,1.27-0.537s0.449-0.879,0.449-1.563c0-0.71-0.153-1.274-0.459-1.694S20.53,19.181,20.016,19.174z"></path>
    <path fill="#020F16" d="M9,9v30h30V9H9z M23.365,24.789C22.539,25.597,21.393,26,19.928,26h-1.914v5h-2.871V16.781h4.844c1.406,0,2.528,0.437,3.364,1.309s1.255,2.005,1.255,3.398S24.192,23.981,23.365,24.789z M32.682,30.336c-0.709,0.573-1.641,0.859-2.793,0.859c-0.775,0-1.459-0.151-2.051-0.454s-1.057-0.725-1.392-1.265s-0.503-1.123-0.503-1.748h2.627c0.014,0.481,0.125,0.843,0.337,1.084s0.558,0.361,1.04,0.361c0.742,0,1.113-0.335,1.113-1.006c0-0.234-0.112-0.451-0.337-0.649S30,27.052,29.225,26.713c-1.139-0.462-1.922-0.94-2.349-1.436s-0.64-1.11-0.64-1.846c0-0.925,0.334-1.688,1.001-2.29s1.552-0.903,2.651-0.903c1.158,0,2.086,0.3,2.783,0.898s1.045,1.403,1.045,2.412h-2.764c0-0.859-0.357-1.289-1.074-1.289c-0.293,0-0.533,0.091-0.723,0.273s-0.283,0.437-0.283,0.762c0,0.234,0.104,0.441,0.313,0.62s0.699,0.435,1.475,0.767c1.127,0.417,1.922,0.881,2.388,1.392s0.698,1.174,0.698,1.987C33.746,29.005,33.391,29.763,32.682,30.336z"></path>
  </symbol>
  <symbol xmlns="http://www.w3.org/2000/svg" viewBox="0 0 48 48" id="icons8-git">
    <path fill="#F4511E" d="M42.2,22.1L25.9,5.8C25.4,5.3,24.7,5,24,5c0,0,0,0,0,0c-0.7,0-1.4,0.3-1.9,0.8l-3.5,3.5l4.1,4.1c0.4-0.2,0.8-0.3,1.3-0.3c1.7,0,3,1.3,3,3c0,0.5-0.1,0.9-0.3,1.3l4,4c0.4-0.2,0.8-0.3,1.3-0.3c1.7,0,3,1.3,3,3s-1.3,3-3,3c-1.7,0-3-1.3-3-3c0-0.5,0.1-0.9,0.3-1.3l-4-4c-0.1,0-0.2,0.1-0.3,0.1v10.4c1.2,0.4,2,1.5,2,2.8c0,1.7-1.3,3-3,3s-3-1.3-3-3c0-1.3,0.8-2.4,2-2.8V18.8c-1.2-0.4-2-1.5-2-2.8c0-0.5,0.1-0.9,0.3-1.3l-4.1-4.1L5.8,22.1C5.3,22.6,5,23.3,5,24c0,0.7,0.3,1.4,0.8,1.9l16.3,16.3c0,0,0,0,0,0c0.5,0.5,1.2,0.8,1.9,0.8s1.4-0.3,1.9-0.8l16.3-16.3c0.5-0.5,0.8-1.2,0.8-1.9C43,23.3,42.7,22.6,42.2,22.1z"></path>
  </symbol>
  <symbol xmlns="http://www.w3.org/2000/svg" viewBox="0 0 48 48" id="icons8-github">
    <linearGradient id="rL2wppHyxHVbobwndsT6Ca" x1="4" x2="44" y1="23.508" y2="23.508" gradientUnits="userSpaceOnUse">
      <stop offset="0" stop-color="#4c4c4c"></stop>
      <stop offset="1" stop-color="#343434"></stop>
    </linearGradient>
    <path fill="url(#rL2wppHyxHVbobwndsT6Ca)" d="M24,4C12.954,4,4,12.954,4,24c0,8.887,5.801,16.411,13.82,19.016h12.36	C38.199,40.411,44,32.887,44,24C44,12.954,35.046,4,24,4z"></path>
    <path d="M30.01,41.996L30,36.198c0-0.939-0.22-1.856-0.642-2.687c5.641-1.133,8.386-4.468,8.386-10.177	c0-2.255-0.665-4.246-1.976-5.92c0.1-0.317,0.174-0.645,0.22-0.981c0.188-1.369-0.023-2.264-0.193-2.984l-0.027-0.116	c-0.186-0.796-0.409-1.364-0.418-1.388l-0.111-0.282l-0.111-0.282l-0.302-0.032l-0.303-0.032c0,0-0.199-0.021-0.501-0.021	c-0.419,0-1.04,0.042-1.627,0.241l-0.196,0.066c-0.74,0.249-1.439,0.485-2.417,1.069c-0.286,0.171-0.599,0.366-0.934,0.584	C27.334,12.881,25.705,12.69,24,12.69c-1.722,0-3.365,0.192-4.889,0.571c-0.339-0.22-0.654-0.417-0.942-0.589	c-0.978-0.584-1.677-0.819-2.417-1.069l-0.196-0.066c-0.585-0.199-1.207-0.241-1.626-0.241c-0.302,0-0.501,0.021-0.501,0.021	l-0.302,0.032l-0.3,0.031l-0.112,0.281l-0.113,0.283c-0.01,0.026-0.233,0.594-0.419,1.391l-0.027,0.115	c-0.17,0.719-0.381,1.615-0.193,2.983c0.048,0.346,0.125,0.685,0.23,1.011c-1.285,1.666-1.936,3.646-1.936,5.89	c0,5.695,2.748,9.028,8.397,10.17c-0.194,0.388-0.345,0.798-0.452,1.224c-0.197,0.067-0.378,0.112-0.538,0.137	c-0.238,0.036-0.487,0.054-0.739,0.054c-0.686,0-1.225-0.134-1.435-0.259c-0.313-0.186-0.872-0.727-1.414-1.518	c-0.463-0.675-1.185-1.558-1.992-1.927c-0.698-0.319-1.437-0.502-2.029-0.502c-0.138,0-0.265,0.01-0.376,0.028	c-0.517,0.082-0.949,0.366-1.184,0.78c-0.203,0.357-0.235,0.773-0.088,1.141c0.219,0.548,0.851,0.985,1.343,1.255	c0.242,0.133,0.765,0.619,1.07,1.109c0.229,0.368,0.335,0.63,0.482,0.992c0.087,0.215,0.183,0.449,0.313,0.732	c0.47,1.022,1.937,1.924,2.103,2.023c0.806,0.483,2.161,0.638,3.157,0.683l0.123,0.003c0,0,0.001,0,0.001,0	c0.24,0,0.57-0.023,1.004-0.071v2.613c0.002,0.529-0.537,0.649-1.25,0.638l0.547,0.184C19.395,43.572,21.645,44,24,44	c2.355,0,4.605-0.428,6.703-1.176l0.703-0.262C30.695,42.538,30.016,42.422,30.01,41.996z" opacity=".05"></path>
    <path d="M30.781,42.797c-0.406,0.047-1.281-0.109-1.281-0.795v-5.804c0-1.094-0.328-2.151-0.936-3.052	c5.915-0.957,8.679-4.093,8.679-9.812c0-2.237-0.686-4.194-2.039-5.822c0.137-0.365,0.233-0.75,0.288-1.147	c0.175-1.276-0.016-2.086-0.184-2.801l-0.027-0.116c-0.178-0.761-0.388-1.297-0.397-1.319l-0.111-0.282l-0.303-0.032	c0,0-0.178-0.019-0.449-0.019c-0.381,0-0.944,0.037-1.466,0.215l-0.196,0.066c-0.714,0.241-1.389,0.468-2.321,1.024	c-0.332,0.198-0.702,0.431-1.101,0.694C27.404,13.394,25.745,13.19,24,13.19c-1.762,0-3.435,0.205-4.979,0.61	c-0.403-0.265-0.775-0.499-1.109-0.699c-0.932-0.556-1.607-0.784-2.321-1.024l-0.196-0.066c-0.521-0.177-1.085-0.215-1.466-0.215	c-0.271,0-0.449,0.019-0.449,0.019l-0.302,0.032l-0.113,0.283c-0.009,0.022-0.219,0.558-0.397,1.319l-0.027,0.116	c-0.169,0.715-0.36,1.524-0.184,2.8c0.056,0.407,0.156,0.801,0.298,1.174c-1.327,1.62-1.999,3.567-1.999,5.795	c0,5.703,2.766,8.838,8.686,9.806c-0.395,0.59-0.671,1.255-0.813,1.964c-0.33,0.13-0.629,0.216-0.891,0.256	c-0.263,0.04-0.537,0.06-0.814,0.06c-0.69,0-1.353-0.129-1.69-0.329c-0.44-0.261-1.057-0.914-1.572-1.665	c-0.35-0.51-1.047-1.417-1.788-1.755c-0.635-0.29-1.298-0.457-1.821-0.457c-0.11,0-0.21,0.008-0.298,0.022	c-0.366,0.058-0.668,0.252-0.828,0.534c-0.128,0.224-0.149,0.483-0.059,0.708c0.179,0.448,0.842,0.85,1.119,1.002	c0.335,0.184,0.919,0.744,1.254,1.284c0.251,0.404,0.37,0.697,0.521,1.067c0.085,0.209,0.178,0.437,0.304,0.712	c0.331,0.719,1.353,1.472,1.905,1.803c0.754,0.452,2.154,0.578,2.922,0.612l0.111,0.002c0.299,0,0.8-0.045,1.495-0.135v3.177	c0,0.779-0.991,0.81-1.234,0.81c-0.031,0,0.503,0.184,0.503,0.184C19.731,43.64,21.822,44,24,44c2.178,0,4.269-0.36,6.231-1.003	C30.231,42.997,30.812,42.793,30.781,42.797z" opacity=".07"></path>
    <path fill="#fff" d="M36.744,23.334c0-2.31-0.782-4.226-2.117-5.728c0.145-0.325,0.296-0.761,0.371-1.309	c0.172-1.25-0.031-2-0.203-2.734s-0.375-1.25-0.375-1.25s-0.922-0.094-1.703,0.172s-1.453,0.469-2.422,1.047	c-0.453,0.27-0.909,0.566-1.27,0.806C27.482,13.91,25.785,13.69,24,13.69c-1.801,0-3.513,0.221-5.067,0.652	c-0.362-0.241-0.821-0.539-1.277-0.811c-0.969-0.578-1.641-0.781-2.422-1.047s-1.703-0.172-1.703-0.172s-0.203,0.516-0.375,1.25	s-0.375,1.484-0.203,2.734c0.077,0.562,0.233,1.006,0.382,1.333c-1.31,1.493-2.078,3.397-2.078,5.704	c0,5.983,3.232,8.714,9.121,9.435c-0.687,0.726-1.148,1.656-1.303,2.691c-0.387,0.17-0.833,0.33-1.262,0.394	c-1.104,0.167-2.271,0-2.833-0.333s-1.229-1.083-1.729-1.813c-0.422-0.616-1.031-1.331-1.583-1.583	c-0.729-0.333-1.438-0.458-1.833-0.396c-0.396,0.063-0.583,0.354-0.5,0.563c0.083,0.208,0.479,0.521,0.896,0.75	c0.417,0.229,1.063,0.854,1.438,1.458c0.418,0.674,0.5,1.063,0.854,1.833c0.249,0.542,1.101,1.219,1.708,1.583	c0.521,0.313,1.562,0.491,2.688,0.542c0.389,0.018,1.308-0.096,2.083-0.206v3.75c0,0.639-0.585,1.125-1.191,1.013	C19.756,43.668,21.833,44,24,44c2.166,0,4.243-0.332,6.19-0.984C29.585,43.127,29,42.641,29,42.002v-5.804	c0-1.329-0.527-2.53-1.373-3.425C33.473,32.071,36.744,29.405,36.744,23.334z M11.239,32.727c-0.154-0.079-0.237-0.225-0.185-0.328	c0.052-0.103,0.22-0.122,0.374-0.043c0.154,0.079,0.237,0.225,0.185,0.328S11.393,32.806,11.239,32.727z M12.451,33.482	c-0.081,0.088-0.255,0.06-0.389-0.062s-0.177-0.293-0.096-0.381c0.081-0.088,0.255-0.06,0.389,0.062S12.532,33.394,12.451,33.482z M13.205,34.732c-0.102,0.072-0.275,0.005-0.386-0.15s-0.118-0.34-0.016-0.412s0.275-0.005,0.386,0.15	C13.299,34.475,13.307,34.66,13.205,34.732z M14.288,35.673c-0.069,0.112-0.265,0.117-0.437,0.012s-0.256-0.281-0.187-0.393	c0.069-0.112,0.265-0.117,0.437-0.012S14.357,35.561,14.288,35.673z M15.312,36.594c-0.213-0.026-0.371-0.159-0.353-0.297	c0.017-0.138,0.204-0.228,0.416-0.202c0.213,0.026,0.371,0.159,0.353,0.297C15.711,36.529,15.525,36.62,15.312,36.594z M16.963,36.833c-0.227-0.013-0.404-0.143-0.395-0.289c0.009-0.146,0.2-0.255,0.427-0.242c0.227,0.013,0.404,0.143,0.395,0.289	C17.381,36.738,17.19,36.846,16.963,36.833z M18.521,36.677c-0.242,0-0.438-0.126-0.438-0.281s0.196-0.281,0.438-0.281	c0.242,0,0.438,0.126,0.438,0.281S18.762,36.677,18.521,36.677z"></path>
  </symbol>
  <symbol xmlns="http://www.w3.org/2000/svg" viewBox="0 0 32 32" id="icons8-gitkraken">
    <path d="M 21.119141 5.0019531 C 20.911766 4.9825469 20.701766 5.0924219 20.603516 5.2949219 C 20.481516 5.5469219 20.577406 5.8533281 20.816406 5.9863281 C 23.881406 7.7063281 25.957031 11.019172 25.957031 14.826172 C 25.957031 19.095172 23.342484 22.746609 19.646484 24.224609 L 19.646484 20.005859 C 20.287484 19.799859 20.771484 19.195656 20.771484 18.472656 C 20.771484 17.873656 20.464234 17.356172 19.990234 17.076172 C 20.365234 13.438172 21.998047 14.396281 21.998047 13.238281 L 21.998047 12.564453 C 21.998047 10.825453 18.030781 5.1612969 16.175781 5.0292969 C 16.062781 5.0202969 15.949031 5.0202969 15.832031 5.0292969 C 13.972031 5.1662969 10.005859 10.826453 10.005859 12.564453 L 10.005859 13.242188 C 10.005859 14.400187 11.645625 13.438078 12.015625 17.080078 C 11.537625 17.359078 11.234375 17.876562 11.234375 18.476562 C 11.234375 19.199562 11.712516 19.803766 12.353516 20.009766 L 12.353516 24.228516 C 8.6565156 22.755516 6.0429688 19.104078 6.0429688 14.830078 C 6.0429688 11.028078 8.1185937 7.7152344 11.183594 5.9902344 C 11.427594 5.8532344 11.518484 5.5508281 11.396484 5.2988281 C 11.265484 5.0288281 10.939734 4.9243125 10.677734 5.0703125 C 7.2927344 6.9703125 5 10.629078 5 14.830078 C 5 20.078078 8.574625 24.477016 13.390625 25.666016 L 13.390625 20.90625 C 13.733625 21.02025 14.073688 21.117406 14.429688 21.191406 L 14.429688 26.851562 C 8.5706875 26.074563 4.0371094 20.989078 4.0371094 14.830078 C 4.0371094 13.329078 4.3087813 11.8895 4.8007812 10.5625 C 4.8997813 10.2975 4.7745781 10.004531 4.5175781 9.8945312 C 4.2465781 9.7755313 3.9301719 9.9113125 3.8261719 10.195312 C 3.2931719 11.636313 3 13.196078 3 14.830078 C 3 21.927078 8.5346563 27.716 15.472656 28 L 15.472656 21.324219 C 15.779656 21.342219 16.148344 21.347219 16.527344 21.324219 L 16.527344 27.994141 C 23.465344 27.715141 29 21.927078 29 14.830078 C 29 13.196078 28.706828 11.637406 28.173828 10.191406 C 28.069828 9.9124063 27.753422 9.7696719 27.482422 9.8886719 C 27.225422 9.9986719 27.099219 10.295641 27.199219 10.556641 C 27.691219 11.883641 27.962891 13.325172 27.962891 14.826172 C 27.962891 20.985172 23.434312 26.069656 17.570312 26.847656 L 17.570312 21.1875 C 17.927312 21.1185 18.271375 21.021344 18.609375 20.902344 L 18.609375 25.662109 C 23.425375 24.477109 27 20.075172 27 14.826172 C 27 10.625172 24.707266 6.9654062 21.322266 5.0664062 C 21.258016 5.0299062 21.188266 5.0084219 21.119141 5.0019531 z M 12.845703 17.390625 C 13.436703 17.390625 13.914062 17.875609 13.914062 18.474609 C 13.914062 19.068609 13.441703 19.558594 12.845703 19.558594 C 12.249703 19.558594 11.775391 19.068609 11.775391 18.474609 C 11.775391 17.880609 12.249703 17.390625 12.845703 17.390625 z M 19.154297 17.392578 C 19.741297 17.392578 20.224609 17.872563 20.224609 18.476562 C 20.224609 19.075563 19.746297 19.560547 19.154297 19.560547 C 18.567297 19.560547 18.085938 19.080563 18.085938 18.476562 C 18.085938 17.877562 18.563297 17.392578 19.154297 17.392578 z"></path>
  </symbol>
  <symbol xmlns="http://www.w3.org/2000/svg" viewBox="0 0 48 48" id="icons8-figma">
    <path fill="#e64a19" d="M26,17h-8c-3.866,0-7-3.134-7-7v0c0-3.866,3.134-7,7-7h8V17z"></path>
    <path fill="#7c4dff" d="M25,31h-7c-3.866,0-7-3.134-7-7v0c0-3.866,3.134-7,7-7h7V31z"></path>
    <path fill="#66bb6a" d="M18,45L18,45c-3.866,0-7-3.134-7-7v0c0-3.866,3.134-7,7-7h7v7C25,41.866,21.866,45,18,45z"></path>
    <path fill="#ff7043" d="M32,17h-7V3h7c3.866,0,7,3.134,7,7v0C39,13.866,35.866,17,32,17z"></path>
    <circle cx="32" cy="24" r="7" fill="#29b6f6"></circle>
  </symbol>
  <symbol xmlns="http://www.w3.org/2000/svg" baseProfile="basic" viewBox="0 0 48 48" id="icons8-bootstrap">
    <path fill="#7c4dff" d="M7.373,11.443C7.293,9.132,9.094,7,11.529,7h24.946c2.435,0,4.236,2.132,4.155,4.443	c-0.077,2.221,0.023,5.097,0.747,7.443c0.726,2.353,1.951,3.84,3.957,4.031v2.167c-2.006,0.191-3.23,1.678-3.957,4.031	c-0.724,2.345-0.824,5.222-0.747,7.443C40.71,38.868,38.909,41,36.475,41H11.529c-2.434,0-4.236-2.132-4.155-4.443	c0.077-2.221-0.023-5.097-0.747-7.443c-0.726-2.353-1.954-3.84-3.96-4.031v-2.167c2.006-0.191,3.233-1.678,3.96-4.031	C7.35,16.54,7.451,13.664,7.373,11.443z"></path>
    <path fill="#fff" d="M27.073,23.464v-0.028c1.853-0.32,3.299-2.057,3.299-3.97c0-1.352-0.52-2.498-1.504-3.312	c-0.981-0.812-2.357-1.241-3.981-1.241H17.45V33.08h7.475c1.942,0,3.555-0.474,4.663-1.372c1.109-0.899,1.696-2.207,1.696-3.783	C31.283,25.544,29.593,23.756,27.073,23.464z M23.59,22.608h-3.181V17.29h3.784c2.076,0,3.219,0.911,3.219,2.565	C27.413,21.63,26.055,22.608,23.59,22.608z M20.409,24.834h3.759c2.716,0,4.092,0.981,4.092,2.916c0,1.932-1.357,2.953-3.925,2.953	h-3.926V24.834z"></path>
  </symbol>
  <symbol version="1.1" id="branching-icon" xmlns="http://www.w3.org/2000/svg" xmlns:xlink="http://www.w3.org/1999/xlink" x="0px" y="0px" enable-background="new 0 0 102.39 122.88" xml:space="preserve" viewBox="0 0 102.39 122.88">
    <g>
      <path fill-rule="evenodd" clip-rule="evenodd" d="M30.529,84.792c6.151,3.507,10.299,10.125,10.299,17.713 c0,11.252-9.123,20.375-20.375,20.375s-20.375-9.123-20.375-20.375c0-7.438,3.986-13.944,9.938-17.502 c-0.581-12.169,0.074-37.095,0.193-46.967C4.107,34.516,0,27.925,0,20.375C0,9.122,9.123,0,20.375,0 c11.253,0,20.376,9.122,20.376,20.375c0,7.558-4.116,14.155-10.228,17.672v23.932c7.833-2.279,15.63-2.077,22.951-1.887 c3.04,0.079,5.972,0.156,8.801-0.066c5.989-0.471,10.397-4.068,10.645-21.415c-6.687-3.342-11.28-10.252-11.28-18.236 C61.64,9.122,70.762,0,82.016,0c11.252,0,20.374,9.122,20.374,20.375c0,7.131-3.664,13.406-9.212,17.046 C93.035,71.855,80.73,78.916,63.861,80.242c-3.343,0.263-7.034,0.167-10.862,0.067c-7.579-0.198-15.893-0.415-22.476,3.804 C30.523,84.336,30.526,84.563,30.529,84.792L30.529,84.792z M82.016,12.688c4.244,0,7.686,3.441,7.686,7.686 c0,4.245-3.441,7.687-7.686,7.687c-4.246,0-7.688-3.442-7.688-7.687C74.328,16.13,77.77,12.688,82.016,12.688L82.016,12.688z M20.375,12.688c4.245,0,7.687,3.441,7.687,7.686c0,4.245-3.441,7.687-7.687,7.687s-7.686-3.442-7.686-7.687 C12.689,16.13,16.13,12.688,20.375,12.688L20.375,12.688z M20.452,94.817c4.245,0,7.687,3.442,7.687,7.688 s-3.441,7.686-7.687,7.686s-7.687-3.44-7.687-7.686S16.207,94.817,20.452,94.817L20.452,94.817z"></path>
    </g>
  </symbol>
  <symbol xmlns="http://www.w3.org/2000/svg" viewBox="0 0 48 48" id="icons8-chakra-ui">
    <circle cx="24" cy="24" r="20" fill="#4db6ac"></circle>
    <path fill="#fff" d="M33.357,21.5h-8.882c-0.187,0-0.308-0.198-0.222-0.365l5.03-9.745	c0.13-0.253-0.195-0.492-0.398-0.293l-14.2,13.974c-0.159,0.157-0.048,0.428,0.175,0.428H24.2c0.202,0,0.32,0.227,0.205,0.393	l-7.126,10.265c-0.17,0.245,0.154,0.528,0.374,0.327l15.873-14.55C33.694,21.78,33.585,21.5,33.357,21.5z"></path>
  </symbol>
  <symbol xmlns="http://www.w3.org/2000/svg" baseProfile="basic" viewBox="0 0 48 48" id="icons8-vite">
    <path fill="#9575cd" d="M44.86,9.976L25.023,45.448c-0.41,0.732-1.462,0.737-1.878,0.008L2.915,9.979 C2.462,9.185,3.141,8.223,4.041,8.384l19.859,3.55c0.127,0.023,0.256,0.022,0.383-0.001l19.443-3.544 C44.623,8.225,45.305,9.18,44.86,9.976z"></path>
    <path fill="#fbc02d" d="M33.574,3.01L19.019,5.862c-0.239,0.047-0.416,0.25-0.431,0.493l-0.895,15.121 c-0.021,0.356,0.306,0.633,0.654,0.552l4.052-0.935c0.379-0.087,0.722,0.246,0.644,0.628l-1.204,5.895 c-0.081,0.397,0.291,0.736,0.679,0.618l2.503-0.76c0.388-0.118,0.761,0.222,0.679,0.62l-1.913,9.26 c-0.12,0.579,0.651,0.895,0.972,0.398l0.215-0.332l11.86-23.669c0.199-0.396-0.144-0.848-0.579-0.764l-4.171,0.805 c-0.392,0.076-0.725-0.289-0.615-0.673l2.722-9.438C34.301,3.299,33.967,2.933,33.574,3.01z"></path>
  </symbol>
  <symbol xmlns="http://www.w3.org/2000/svg" viewBox="0 0 100 100" id="icons8-react">
    <circle cx="50" cy="50" r="7" fill="#39c1d7"></circle>
    <path fill="#1f212b" d="M50,58c-4.411,0-8-3.589-8-8s3.589-8,8-8s8,3.589,8,8S54.411,58,50,58z M50,44c-3.309,0-6,2.691-6,6	s2.691,6,6,6s6-2.691,6-6S53.309,44,50,44z"></path>
    <path fill="#39c1d7" d="M88.5,50c0-5.376-6.474-10.029-16.518-12.798c2.582-10.096,1.787-18.035-2.827-20.729	c-1.82-1.063-4.028-1.257-6.562-0.579C58.775,16.916,54.4,19.904,50,24.293c-4.4-4.389-8.775-7.376-12.593-8.399	c-2.534-0.679-4.742-0.484-6.562,0.579c-4.614,2.694-5.409,10.632-2.827,20.729C17.974,39.971,11.5,44.624,11.5,50	s6.474,10.029,16.518,12.799c-2.582,10.096-1.787,18.035,2.827,20.729c1.112,0.649,2.368,0.976,3.756,0.975	c0.883,0,1.82-0.132,2.806-0.396c3.818-1.023,8.193-4.01,12.593-8.399c4.4,4.389,8.775,7.376,12.593,8.399	c0.986,0.264,1.923,0.396,2.806,0.396c1.388,0,2.644-0.325,3.756-0.975c4.614-2.694,5.408-10.633,2.827-20.729	C82.026,60.029,88.5,55.376,88.5,50z M63.369,18.791c0.725-0.193,1.397-0.291,2.016-0.291c0.86,0,1.616,0.188,2.257,0.563	c3.092,1.806,3.723,8.42,1.42,17.411c-3.173-0.714-6.635-1.251-10.314-1.583c-2.159-3.113-4.405-5.947-6.668-8.429	C56.098,22.435,60.04,19.683,63.369,18.791z M60.755,56.299c-1.179,2.066-2.42,4.045-3.693,5.939C54.802,62.407,52.446,62.5,50,62.5	s-4.802-0.093-7.061-0.262c-1.273-1.894-2.514-3.873-3.693-5.939c-1.219-2.136-2.313-4.24-3.293-6.298	c0.98-2.058,2.074-4.162,3.293-6.299c1.18-2.067,2.42-4.046,3.694-5.94C45.199,37.593,47.554,37.5,50,37.5s4.801,0.093,7.061,0.262	c1.273,1.894,2.514,3.874,3.694,5.94c1.219,2.136,2.313,4.24,3.293,6.299C63.068,52.059,61.974,54.163,60.755,56.299z M65.644,53.545c1.041,2.461,1.901,4.83,2.597,7.082c-2.275,0.507-4.731,0.93-7.354,1.243c0.842-1.326,1.672-2.682,2.473-4.085	C64.171,56.366,64.928,54.951,65.644,53.545z M50,71.357c-1.636-1.809-3.269-3.812-4.864-5.979C46.728,65.455,48.348,65.5,50,65.5	s3.272-0.045,4.864-0.122C53.269,67.544,51.636,69.547,50,71.357z M39.112,61.87c-2.622-0.313-5.079-0.736-7.354-1.243	c0.696-2.252,1.556-4.622,2.597-7.082c0.716,1.406,1.474,2.821,2.284,4.24C37.441,59.189,38.27,60.545,39.112,61.87z M34.356,46.456	c-1.041-2.461-1.902-4.831-2.597-7.084c2.275-0.507,4.732-0.93,7.355-1.243c-0.843,1.326-1.672,2.683-2.473,4.086	C35.829,43.635,35.072,45.05,34.356,46.456z M50,28.644c1.636,1.809,3.269,3.812,4.864,5.979C53.272,34.545,51.652,34.5,50,34.5	s-3.272,0.045-4.864,0.122C46.731,32.456,48.364,30.453,50,28.644z M63.36,42.216c-0.801-1.404-1.631-2.76-2.473-4.086	c2.623,0.313,5.079,0.736,7.355,1.243c-0.696,2.253-1.556,4.622-2.597,7.084C64.928,45.05,64.171,43.635,63.36,42.216z M32.358,19.063C33,18.688,33.754,18.5,34.615,18.5c0.618,0,1.292,0.098,2.016,0.291c3.329,0.892,7.271,3.643,11.289,7.67	c-2.263,2.482-4.509,5.317-6.668,8.429c-3.679,0.332-7.142,0.869-10.314,1.583C28.635,27.482,29.266,20.868,32.358,19.063z M14.5,50	c0-3.596,5.401-7.44,14.335-9.901c0.969,3.159,2.241,6.486,3.806,9.901c-1.565,3.415-2.837,6.742-3.806,9.901	C19.901,57.44,14.5,53.596,14.5,50z M36.631,81.209c-1.733,0.462-3.17,0.371-4.273-0.271c-3.092-1.806-3.722-8.42-1.42-17.411	c3.172,0.714,6.635,1.251,10.313,1.583c2.159,3.113,4.405,5.947,6.668,8.43C43.902,77.566,39.96,80.317,36.631,81.209z M67.642,80.938c-1.103,0.644-2.539,0.734-4.273,0.271c-3.329-0.892-7.271-3.643-11.289-7.67c2.263-2.482,4.509-5.317,6.668-8.43	c3.679-0.332,7.141-0.869,10.313-1.583C71.365,72.518,70.734,79.132,67.642,80.938z M71.165,59.901	c-0.969-3.159-2.241-6.486-3.806-9.901c1.565-3.415,2.837-6.743,3.806-9.901C80.099,42.56,85.5,46.404,85.5,50	S80.099,57.44,71.165,59.901z"></path>
    <path fill="#1f212b" d="M34.595,85.002c-1.471,0-2.817-0.351-4.001-1.043c-4.632-2.705-5.783-10.276-3.178-20.811	C16.975,60.179,11,55.4,11,50s5.975-10.179,16.415-13.148c-2.604-10.535-1.453-18.106,3.179-20.811	c1.938-1.134,4.273-1.346,6.943-0.63c3.718,0.996,8.02,3.82,12.463,8.179c4.444-4.359,8.746-7.183,12.463-8.179	c2.669-0.714,5.005-0.502,6.944,0.63c4.631,2.705,5.782,10.276,3.178,20.811C83.025,39.821,89,44.6,89,50	s-5.975,10.179-16.415,13.148c2.604,10.535,1.454,18.105-3.178,20.811c-1.927,1.125-4.286,1.342-6.943,0.63	c-3.719-0.996-8.021-3.82-12.464-8.178c-4.443,4.358-8.745,7.183-12.463,8.178c-1.023,0.274-2.011,0.413-2.936,0.413	C34.599,85.002,34.597,85.002,34.595,85.002z M34.604,15.999c-1.301,0-2.474,0.302-3.507,0.906	c-4.224,2.467-5.194,10.008-2.595,20.173c0.067,0.264-0.089,0.534-0.352,0.606C18.038,40.472,12,45.077,12,50	s6.038,9.528,16.151,12.316c0.263,0.072,0.419,0.342,0.352,0.606c-2.6,10.165-1.63,17.707,2.594,20.173	c1.03,0.601,2.207,0.906,3.498,0.906c0.002,0,0.004,0,0.006,0c0.838,0,1.738-0.127,2.677-0.378c3.647-0.977,7.925-3.836,12.369-8.27	c0.195-0.194,0.511-0.194,0.706,0c4.444,4.433,8.722,7.292,12.369,8.27c2.394,0.639,4.485,0.461,6.181-0.528	c4.224-2.467,5.194-10.008,2.594-20.173c-0.067-0.264,0.089-0.534,0.352-0.606C81.962,59.528,88,54.923,88,50	s-6.038-9.528-16.151-12.316c-0.263-0.072-0.419-0.342-0.352-0.606c2.599-10.165,1.629-17.707-2.595-20.173	c-1.699-0.993-3.779-1.17-6.181-0.528c-3.647,0.977-7.924,3.836-12.369,8.27c-0.195,0.194-0.511,0.194-0.706,0	c-4.445-4.434-8.722-7.293-12.369-8.27C36.336,16.125,35.444,15.999,34.604,15.999z M65.386,81.999	c-0.663,0-1.379-0.102-2.146-0.307c-3.331-0.893-7.312-3.589-11.514-7.8c-0.188-0.189-0.195-0.493-0.016-0.69	c2.265-2.484,4.494-5.303,6.627-8.378c0.084-0.122,0.218-0.2,0.366-0.213c3.612-0.326,7.06-0.855,10.249-1.573	c0.261-0.059,0.527,0.101,0.594,0.364c2.336,9.123,1.703,16.008-1.652,17.967l0,0C67.175,81.789,66.336,81.999,65.386,81.999z M52.771,73.521c3.951,3.894,7.653,6.381,10.727,7.205c1.599,0.427,2.909,0.353,3.892-0.22l0,0	c2.855-1.668,3.357-8.073,1.306-16.387c-3.028,0.659-6.277,1.152-9.67,1.467C57.01,68.478,54.908,71.144,52.771,73.521z M34.614,81.999c-0.95,0-1.789-0.21-2.508-0.629c-3.355-1.96-3.989-8.845-1.652-17.968c0.067-0.262,0.333-0.419,0.594-0.364	c3.188,0.718,6.636,1.247,10.249,1.573c0.147,0.013,0.282,0.091,0.366,0.213c2.133,3.075,4.362,5.894,6.627,8.378	c0.18,0.197,0.173,0.501-0.016,0.69c-4.202,4.21-8.183,6.907-11.513,7.8h0C35.993,81.896,35.276,81.999,34.614,81.999z M31.304,64.119c-2.051,8.313-1.549,14.719,1.306,16.387c0.982,0.572,2.292,0.647,3.892,0.22l0,0	c3.074-0.824,6.776-3.312,10.727-7.205c-2.136-2.377-4.238-5.043-6.254-7.935C37.582,65.271,34.332,64.778,31.304,64.119z M50,71.856c-0.141,0-0.276-0.06-0.371-0.165c-1.663-1.839-3.31-3.864-4.896-6.018c-0.114-0.155-0.129-0.363-0.038-0.533	c0.091-0.17,0.261-0.274,0.465-0.263c3.306,0.161,6.374,0.161,9.68,0c0.2-0.012,0.374,0.093,0.465,0.263	c0.091,0.17,0.077,0.377-0.038,0.533c-1.586,2.153-3.233,4.178-4.896,6.018C50.276,71.796,50.141,71.856,50,71.856z M46.167,65.924	c1.251,1.655,2.537,3.226,3.833,4.684c1.297-1.458,2.582-3.028,3.833-4.684C51.221,66.024,48.779,66.024,46.167,65.924z M50,63	c-2.369,0-4.757-0.088-7.099-0.263c-0.153-0.011-0.292-0.092-0.378-0.22c-1.337-1.989-2.586-3.998-3.712-5.97	c-1.18-2.068-2.294-4.198-3.31-6.332c-0.065-0.136-0.065-0.294,0-0.43c1.016-2.134,2.13-4.264,3.31-6.332	c1.125-1.97,2.374-3.979,3.713-5.971c0.085-0.127,0.225-0.208,0.378-0.22c4.684-0.35,9.513-0.35,14.196,0	c0.153,0.011,0.292,0.092,0.378,0.22c1.339,1.992,2.588,4.001,3.713,5.971c1.18,2.068,2.294,4.198,3.31,6.332	c0.065,0.136,0.065,0.294,0,0.43c-1.016,2.134-2.13,4.264-3.31,6.332l0,0c-1.126,1.972-2.375,3.981-3.712,5.97	c-0.085,0.127-0.225,0.208-0.378,0.22C54.757,62.912,52.369,63,50,63z M43.218,61.757c4.479,0.322,9.085,0.322,13.563,0	c1.273-1.903,2.463-3.822,3.539-5.707c1.128-1.977,2.195-4.011,3.173-6.05c-0.978-2.039-2.045-4.074-3.173-6.05	c-1.075-1.883-2.265-3.802-3.54-5.708c-4.479-0.322-9.084-0.322-13.563,0c-1.274,1.906-2.465,3.825-3.54,5.708	c-1.128,1.977-2.195,4.011-3.173,6.05c0.978,2.039,2.045,4.074,3.173,6.05C40.755,57.936,41.945,59.854,43.218,61.757z M60.888,62.371c-0.17,0-0.331-0.087-0.423-0.233c-0.103-0.164-0.102-0.372,0.001-0.535c0.928-1.461,1.733-2.791,2.46-4.065	c0.764-1.338,1.528-2.758,2.273-4.219c0.088-0.173,0.273-0.276,0.463-0.272c0.194,0.007,0.367,0.125,0.443,0.305	c1.015,2.399,1.894,4.798,2.614,7.129c0.042,0.133,0.025,0.278-0.045,0.398c-0.07,0.121-0.188,0.207-0.324,0.237	c-2.35,0.525-4.841,0.946-7.403,1.252C60.927,62.37,60.907,62.371,60.888,62.371z M65.596,54.731	c-0.594,1.138-1.198,2.245-1.801,3.302c-0.583,1.022-1.216,2.079-1.92,3.209c1.97-0.262,3.89-0.593,5.727-0.987	C67.025,58.441,66.353,56.59,65.596,54.731z M39.112,62.371c-0.02,0-0.04-0.001-0.06-0.003C36.491,62.061,34,61.64,31.65,61.115	c-0.136-0.03-0.253-0.116-0.324-0.237c-0.07-0.121-0.086-0.265-0.045-0.398c0.72-2.332,1.599-4.73,2.614-7.129	c0.076-0.179,0.249-0.298,0.443-0.305c0.182-0.019,0.375,0.099,0.463,0.272c0.745,1.461,1.509,2.881,2.273,4.219	c0.728,1.274,1.533,2.604,2.46,4.065c0.104,0.163,0.104,0.371,0.001,0.535C39.443,62.284,39.283,62.371,39.112,62.371z M32.399,60.255c1.837,0.394,3.757,0.725,5.727,0.987c-0.705-1.13-1.337-2.187-1.92-3.209c-0.604-1.057-1.207-2.165-1.801-3.302	C33.647,56.59,32.975,58.441,32.399,60.255z M71.165,60.401c-0.215,0-0.412-0.139-0.478-0.354c-0.975-3.179-2.248-6.489-3.782-9.838	c-0.061-0.132-0.061-0.285,0-0.417c1.534-3.349,2.807-6.66,3.783-9.84c0.08-0.259,0.354-0.404,0.611-0.335	C80.367,42.116,86,46.094,86,50s-5.634,7.884-14.703,10.383C71.253,60.395,71.208,60.401,71.165,60.401z M67.909,50	c1.436,3.155,2.643,6.277,3.589,9.288C79.717,56.945,85,53.322,85,50s-5.283-6.945-13.502-9.288	C70.551,43.724,69.344,46.846,67.909,50z M28.835,60.401c-0.044,0-0.088-0.006-0.133-0.018C19.634,57.884,14,53.906,14,50	s5.633-7.884,14.702-10.383c0.258-0.069,0.531,0.076,0.611,0.335c0.976,3.18,2.249,6.491,3.783,9.84	c0.061,0.132,0.061,0.284,0,0.417c-1.535,3.35-2.807,6.66-3.782,9.838C29.248,60.262,29.05,60.401,28.835,60.401z M28.502,40.712	C20.283,43.055,15,46.678,15,50s5.283,6.945,13.502,9.288c0.947-3.011,2.153-6.132,3.589-9.288	C30.656,46.846,29.449,43.724,28.502,40.712z M65.645,46.957c-0.188,0-0.36-0.105-0.446-0.273c-0.757-1.488-1.501-2.869-2.272-4.22	l0,0c-0.726-1.272-1.531-2.602-2.461-4.066c-0.104-0.163-0.104-0.371-0.001-0.535c0.103-0.163,0.287-0.253,0.483-0.23	c2.563,0.307,5.054,0.728,7.404,1.252c0.136,0.03,0.253,0.116,0.324,0.237c0.07,0.121,0.086,0.265,0.045,0.398	c-0.721,2.336-1.601,4.735-2.614,7.131c-0.076,0.179-0.249,0.298-0.443,0.305C65.656,46.957,65.65,46.957,65.645,46.957z M63.794,41.968c0.611,1.07,1.205,2.158,1.801,3.302c0.756-1.856,1.428-3.709,2.005-5.525c-1.837-0.394-3.757-0.725-5.728-0.987	C62.58,39.89,63.212,40.947,63.794,41.968L63.794,41.968z M34.355,46.957c-0.006,0-0.012,0-0.018,0	c-0.194-0.007-0.367-0.125-0.443-0.305c-1.013-2.396-1.893-4.795-2.614-7.131c-0.042-0.133-0.025-0.278,0.045-0.398	c0.07-0.121,0.188-0.207,0.324-0.237c2.35-0.525,4.841-0.946,7.404-1.252c0.195-0.02,0.38,0.067,0.483,0.23	c0.103,0.164,0.102,0.372-0.001,0.535c-0.93,1.464-1.735,2.794-2.461,4.066c-0.771,1.351-1.515,2.731-2.272,4.22	C34.715,46.852,34.543,46.957,34.355,46.957z M32.399,39.745c0.577,1.816,1.25,3.669,2.005,5.525	c0.597-1.144,1.19-2.232,1.801-3.302c0.583-1.021,1.215-2.078,1.921-3.21C36.156,39.02,34.236,39.351,32.399,39.745z M69.063,36.974	c-0.037,0-0.073-0.004-0.11-0.012c-3.188-0.718-6.637-1.247-10.25-1.573c-0.147-0.013-0.282-0.091-0.366-0.213	c-2.133-3.076-4.363-5.894-6.627-8.377c-0.18-0.197-0.173-0.501,0.016-0.69c4.201-4.21,8.183-6.908,11.514-7.8h0	c1.869-0.5,3.438-0.387,4.654,0.322c3.355,1.96,3.989,8.845,1.653,17.968C69.489,36.823,69.287,36.974,69.063,36.974z M59.025,34.414c3.393,0.315,6.643,0.808,9.671,1.467c2.051-8.313,1.549-14.719-1.307-16.387c-0.979-0.571-2.291-0.646-3.891-0.22	c-3.074,0.824-6.777,3.312-10.728,7.206C54.907,28.855,57.009,31.521,59.025,34.414z M30.937,36.974	c-0.224,0-0.426-0.151-0.484-0.376c-2.336-9.123-1.703-16.007,1.652-17.967c0,0,0,0,0.001,0c1.216-0.709,2.787-0.822,4.653-0.322	c3.332,0.893,7.313,3.59,11.514,7.8c0.188,0.189,0.195,0.493,0.016,0.69c-2.264,2.483-4.494,5.302-6.627,8.377	c-0.084,0.122-0.218,0.2-0.366,0.213c-3.612,0.326-7.061,0.855-10.25,1.573C31.01,36.97,30.974,36.974,30.937,36.974z M32.61,19.494	c-2.855,1.668-3.357,8.074-1.307,16.387c3.028-0.659,6.278-1.152,9.671-1.467c2.017-2.893,4.118-5.559,6.254-7.935	c-3.951-3.894-7.653-6.382-10.728-7.206C34.907,18.848,33.593,18.922,32.61,19.494L32.61,19.494z M54.864,35.122	c-0.008,0-0.016,0-0.024,0c-3.306-0.161-6.373-0.161-9.679,0c-0.206,0.005-0.374-0.094-0.465-0.263	c-0.091-0.17-0.077-0.377,0.038-0.533c1.587-2.155,3.234-4.18,4.896-6.018c0.19-0.209,0.552-0.209,0.742,0	c1.661,1.837,3.308,3.862,4.896,6.018c0.114,0.155,0.129,0.363,0.038,0.533C55.217,35.021,55.047,35.122,54.864,35.122z M50,34	c1.242,0,2.527,0.026,3.833,0.077c-1.252-1.657-2.538-3.228-3.833-4.684c-1.295,1.457-2.581,3.027-3.833,4.684	C47.473,34.026,48.758,34,50,34z"></path>
  </symbol>
  <symbol xmlns="http://www.w3.org/2000/svg" viewBox="0 0 48 48" id="icons8-typescript">
    <linearGradient id="O2zipXlwzZyOse8_3L2yya" x1="15.189" x2="32.276" y1="-.208" y2="46.737" gradientUnits="userSpaceOnUse">
      <stop offset="0" stop-color="#2aa4f4"></stop>
      <stop offset="1" stop-color="#007ad9"></stop>
    </linearGradient>
    <rect width="36" height="36" x="6" y="6" fill="url(#O2zipXlwzZyOse8_3L2yya)"></rect>
    <polygon fill="#fff" points="27.49,22 14.227,22 14.227,25.264 18.984,25.264 18.984,40 22.753,40 22.753,25.264 27.49,25.264"></polygon>
    <path fill="#fff" d="M39.194,26.084c0,0-1.787-1.192-3.807-1.192s-2.747,0.96-2.747,1.986	c0,2.648,7.381,2.383,7.381,7.712c0,8.209-11.254,4.568-11.254,4.568V35.22c0,0,2.152,1.622,4.733,1.622s2.483-1.688,2.483-1.92	c0-2.449-7.315-2.449-7.315-7.878c0-7.381,10.658-4.469,10.658-4.469L39.194,26.084z"></path>
  </symbol>
  <symbol xmlns="http://www.w3.org/2000/svg" viewBox="0 0 48 48" id="icons8-css">
    <path fill="#0277BD" d="M41,5H7l3,34l14,4l14-4L41,5L41,5z"></path>
    <path fill="#039BE5" d="M24 8L24 39.9 35.2 36.7 37.7 8z"></path>
    <path fill="#FFF" d="M33.1 13L24 13 24 17 28.9 17 28.6 21 24 21 24 25 28.4 25 28.1 29.5 24 30.9 24 35.1 31.9 32.5 32.6 21 32.6 21z"></path>
    <path fill="#EEE" d="M24,13v4h-8.9l-0.3-4H24z M19.4,21l0.2,4H24v-4H19.4z M19.8,27h-4l0.3,5.5l7.9,2.6v-4.2l-4.1-1.4L19.8,27z"></path>
  </symbol>
  <symbol xmlns="http://www.w3.org/2000/svg" viewBox="0 0 48 48" id="icons8-vs-code">
    <path fill="#29b6f6" d="M44,11.11v25.78c0,1.27-0.79,2.4-1.98,2.82l-8.82,4.14L34,33V15L33.2,4.15l8.82,4.14 C43.21,8.71,44,9.84,44,11.11z"></path>
    <path fill="#0277bd" d="M9,33.896L34,15V5.353c0-1.198-1.482-1.758-2.275-0.86L4.658,29.239 c-0.9,0.83-0.849,2.267,0.107,3.032c0,0,1.324,1.232,1.803,1.574C7.304,34.37,8.271,34.43,9,33.896z"></path>
    <path fill="#0288d1" d="M9,14.104L34,33v9.647c0,1.198-1.482,1.758-2.275,0.86L4.658,18.761 c-0.9-0.83-0.849-2.267,0.107-3.032c0,0,1.324-1.232,1.803-1.574C7.304,13.63,8.271,13.57,9,14.104z"></path>
  </symbol>
  <symbol version="1.1" id="visual-studio-code-icon" xmlns="http://www.w3.org/2000/svg" xmlns:xlink="http://www.w3.org/1999/xlink" x="0px" y="0px" xml:space="preserve" viewBox="0 0 256 256">
    <defs>
      <filter id="Adobe_OpacityMaskFilter" filterUnits="userSpaceOnUse" x="-0.16" y="0.66" width="256.16" height="254.68">
        <feColorMatrix type="matrix" values="1 0 0 0 0 0 1 0 0 0 0 0 1 0 0 0 0 0 1 0"></feColorMatrix>
      </filter>
    </defs>
    <mask maskUnits="userSpaceOnUse" x="-0.16" y="0.66" width="256.16" height="254.68" id="mask0_1_">
      <path d="M181.53,254.25c4.03,1.57,8.63,1.47,12.7-0.49l52.71-25.36c5.54-2.66,9.06-8.27,9.06-14.42V42.02 c0-6.15-3.52-11.75-9.06-14.42L194.23,2.24c-5.34-2.57-11.59-1.94-16.28,1.47c-0.67,0.49-1.31,1.03-1.91,1.63L75.15,97.39 L31.2,64.02c-4.09-3.11-9.81-2.85-13.61,0.61L3.49,77.45c-4.65,4.23-4.65,11.54-0.01,15.77L41.59,128L3.48,162.77 c-4.64,4.24-4.64,11.55,0.01,15.78l14.1,12.82c3.8,3.46,9.52,3.71,13.61,0.61l43.95-33.36l100.9,92.05 C177.65,252.26,179.52,253.47,181.53,254.25z M192.04,69.89L115.48,128l76.56,58.12V69.89z"></path>
    </mask>
    <g>
      <path d="M246.94,27.64l-52.75-25.4c-6.1-2.94-13.4-1.7-18.19,3.09L3.32,162.77c-4.64,4.24-4.64,11.55,0.01,15.78 l14.1,12.82c3.8,3.46,9.53,3.71,13.62,0.61L239,34.23c6.98-5.29,17-0.32,17,8.44v-0.61C256,35.91,252.48,30.3,246.94,27.64z"></path>
      <g>
        <path d="M246.94,228.36l-52.75,25.4c-6.1,2.94-13.4,1.7-18.19-3.09L3.32,93.23c-4.64-4.23-4.64-11.55,0.01-15.77 l14.1-12.82c3.8-3.46,9.53-3.71,13.62-0.61L239,221.77c6.98,5.29,17,0.32,17-8.44v0.61C256,220.09,252.48,225.7,246.94,228.36z"></path>
      </g>
      <g>
        <path d="M194.2,253.76c-6.11,2.94-13.4,1.7-18.2-3.1c5.9,5.9,16,1.72,16-6.63V11.96c0-8.35-10.1-12.53-16-6.63 c4.79-4.79,12.09-6.03,18.2-3.1l52.74,25.36c5.54,2.67,9.07,8.27,9.07,14.42v171.97c0,6.15-3.52,11.75-9.07,14.42L194.2,253.76z"></path>
      </g>
      <g>
        <linearGradient id="SVGID_1_" gradientUnits="userSpaceOnUse" x1="127.8439" y1="257.34" x2="127.8439" y2="2.6598" gradientTransform="matrix(1 0 0 -1 0 258)">
          <stop offset="0"></stop>
          <stop offset="1"></stop>
        </linearGradient>
        <path d="M181.38,254.25c4.03,1.57,8.63,1.47,12.7-0.49l52.71-25.36c5.54-2.66,9.06-8.27,9.06-14.42V42.02 c0-6.15-3.52-11.75-9.06-14.42L194.08,2.24c-5.34-2.57-11.59-1.94-16.28,1.47c-0.67,0.49-1.31,1.03-1.91,1.63L74.99,97.39 L31.04,64.02c-4.09-3.11-9.81-2.85-13.61,0.61L3.33,77.45c-4.65,4.23-4.65,11.54-0.01,15.78L41.44,128L3.32,162.77 c-4.64,4.24-4.64,11.55,0.01,15.78l14.1,12.82c3.8,3.46,9.52,3.71,13.61,0.61l43.95-33.36l100.9,92.05 C177.49,252.26,179.36,253.47,181.38,254.25z M191.88,69.89L115.32,128l76.56,58.12V69.89z"></path>
      </g>
    </g>
  </symbol>
  <symbol xmlns="http://www.w3.org/2000/svg" viewBox="0 0 48 48" id="icons8-intellij-idea">
    <path fill="#f57c00" d="M14.125 35.188L4.438 27.563 9.25 18.625 23.062 24z"></path>
    <path fill="#1e88e5" d="M44 14.688L43.25 37.813 27.875 44 18.625 38 32.125 24z"></path>
    <path fill="#2962ff" d="M44 14.688L31.812 29.063 26.25 11 31.563 4.625z"></path>
    <path fill="#ab47bc" d="M34.688 19.625L23.25 37.188 7.25 43 9.813 34 13.125 22.875z"></path>
    <path fill="#e91e63" d="M13.125 22.875L4 19.813 9.813 4 22.313 5.5 34.688 19.625z"></path>
    <path fill="#000001" d="M11 11H36V36H11z"></path>
    <path fill="#fff" d="M14 31.5H23V33H14zM20.5 15.875L20.5 14 15.5 14 15.5 15.875 17 15.875 17 22.375 15.5 22.375 15.5 24.25 20.5 24.25 20.5 22.375 19.159 22.375 19.159 15.875zM25.375 24.5c-1.875 0-2.871-1.098-3.25-1.548l1.411-1.605c.255.282.964 1.028 1.839 1.028 1.125 0 1.375-1.125 1.375-1.75V14H29v6.625c0 .624 0 1.625-.75 2.625C27.725 23.95 26.5 24.5 25.375 24.5z"></path>
  </symbol>
  <symbol xmlns="http://www.w3.org/2000/svg" viewBox="0 0 64 64" id="icons8-javascript">
    <linearGradient id="SVGID_1_" x1="32" x2="32" y1="9.043" y2="55.011" gradientUnits="userSpaceOnUse">
      <stop offset="0" stop-color="#1a6dff"></stop>
      <stop offset="1" stop-color="#c822ff"></stop>
    </linearGradient>
    <path fill="url(#SVGID_1_)" d="M51,8H13c-2.8,0-5,2.2-5,5v38c0,2.8,2.2,5,5,5h38c2.8,0,5-2.2,5-5V13C56,10.2,53.8,8,51,8z M54,51	c0,1.7-1.3,3-3,3H13c-1.7,0-3-1.3-3-3V13c0-1.7,1.3-3,3-3h38c1.7,0,3,1.3,3,3V51z"></path>
    <linearGradient id="SVGID_2_" x1="45.578" x2="45.578" y1="35.681" y2="50.191" gradientUnits="userSpaceOnUse">
      <stop offset="0" stop-color="#6dc7ff"></stop>
      <stop offset="1" stop-color="#e6abff"></stop>
    </linearGradient>
    <path fill="url(#SVGID_2_)" d="M46.7,41.5l-0.8-0.3c-1.4-0.6-2-1-2-2c0-0.8,0.6-1.4,1.5-1.4c0.8,0,1.3,0.3,1.8,1c0.1,0.2,0.4,0.3,0.7,0.1 l1.7-1.1c0.2-0.1,0.3-0.5,0.2-0.7c-1-1.5-2.4-2.1-4.3-2.1c-2.9,0-4.7,1.8-4.7,4.2c0,2.6,1.5,3.9,3.9,4.8l0.8,0.3 c1.5,0.6,2.2,1,2.2,2.1c0,0.9-0.7,1.6-2,1.6c-1.4,0-2.1-0.8-2.8-1.8c-0.2-0.2-0.5-0.3-0.7-0.1l-1.7,1.1c-0.2,0.1-0.3,0.4-0.2,0.7 c1,1.7,2.6,3,5.4,3c3.1,0,5.3-1.6,5.3-4.5C51,43.8,49.5,42.6,46.7,41.5z"></path>
    <linearGradient id="SVGID_3_" x1="34.081" x2="34.081" y1="35.681" y2="50.191" gradientUnits="userSpaceOnUse">
      <stop offset="0" stop-color="#6dc7ff"></stop>
      <stop offset="1" stop-color="#e6abff"></stop>
    </linearGradient>
    <path fill="url(#SVGID_3_)" d="M38.5,35h-2.3c-0.3,0-0.5,0.2-0.5,0.5v10.1c0,1.6-0.6,2-1.7,2c-0.9,0-1.6-0.5-2.1-1.2 c-0.1-0.2-0.4-0.3-0.7-0.1l-1.8,1.1c-0.2,0.1-0.3,0.5-0.2,0.7c0.9,1.5,2.6,2.9,5,2.9c2.9,0,4.8-1.5,4.8-4.9V35.5 C39,35.2,38.8,35,38.5,35z"></path>
  </symbol>
  <symbol xmlns="http://www.w3.org/2000/svg" viewBox="0 0 48 48" id="icons8-java">
    <path fill="#F44336" d="M23.65,24.898c-0.998-1.609-1.722-2.943-2.725-5.455C19.229,15.2,31.24,11.366,26.37,3.999c2.111,5.089-7.577,8.235-8.477,12.473C17.07,20.37,23.645,24.898,23.65,24.898z"></path>
    <path fill="#F44336" d="M23.878,17.27c-0.192,2.516,2.229,3.857,2.299,5.695c0.056,1.496-1.447,2.743-1.447,2.743s2.728-0.536,3.579-2.818c0.945-2.534-1.834-4.269-1.548-6.298c0.267-1.938,6.031-5.543,6.031-5.543S24.311,11.611,23.878,17.27z"></path>
    <g>
      <path fill="#1565C0" d="M32.084 25.055c1.754-.394 3.233.723 3.233 2.01 0 2.901-4.021 5.643-4.021 5.643s6.225-.742 6.225-5.505C37.521 24.053 34.464 23.266 32.084 25.055zM29.129 27.395c0 0 1.941-1.383 2.458-1.902-4.763 1.011-15.638 1.147-15.638.269 0-.809 3.507-1.638 3.507-1.638s-7.773-.112-7.773 2.181C11.683 28.695 21.858 28.866 29.129 27.395z"></path>
      <path fill="#1565C0" d="M27.935,29.571c-4.509,1.499-12.814,1.02-10.354-0.993c-1.198,0-2.974,0.963-2.974,1.889c0,1.857,8.982,3.291,15.63,0.572L27.935,29.571z"></path>
      <path fill="#1565C0" d="M18.686,32.739c-1.636,0-2.695,1.054-2.695,1.822c0,2.391,9.76,2.632,13.627,0.205l-2.458-1.632C24.271,34.404,17.014,34.579,18.686,32.739z"></path>
      <path fill="#1565C0" d="M36.281,36.632c0-0.936-1.055-1.377-1.433-1.588c2.228,5.373-22.317,4.956-22.317,1.784c0-0.721,1.807-1.427,3.477-1.093l-1.42-0.839C11.26,34.374,9,35.837,9,37.017C9,42.52,36.281,42.255,36.281,36.632z"></path>
      <path fill="#1565C0" d="M39,38.604c-4.146,4.095-14.659,5.587-25.231,3.057C24.341,46.164,38.95,43.628,39,38.604z"></path>
    </g>
  </symbol>
</svg>